<svg xmlns="http://www.w3.org/2000/svg" viewBox="0 0 1920 1080" width="1920" height="1080" preserveAspectRatio="xMidYMid slice" xmlns:c2pa="http://c2pa.org/manifest"><metadata><c2pa:manifest>AAAWgmp1bWIAAAAeanVtZGMycGEAEQAQgAAAqgA4m3EDYzJwYQAAABZcanVtYgAAAEdqdW1kYzJtYQARABCAAACqADibcQN1cm46YzJwYTo4ZWY1ODczMC05MzM5LTRlMTQtODYyZC00M2YwOTM3ZjAwZTEAAAADl2p1bWIAAAApanVtZGMyYXMAEQAQgAAAqgA4m3EDYzJwYS5hc3NlcnRpb25zAAAAALxqdW1iAAAARGp1bWRjYm9yABEAEIAAAKoAOJtxE2MycGEuaW5ncmVkaWVudC52MwAAAAAYYzJzaKnNzDRxsrUZYKi0EzfHrpIAAABwY2JvcqNpZGM6Zm9ybWF0bWltYWdlL3N2Zyt4bWxqaW5zdGFuY2VJRHgseG1wOmlpZDoyZGRiM2IyOC0wYWFlLTRiMmEtOTU4Zi1lNTk1Nzg4MTljOTdscmVsYXRpb25zaGlwaHBhcmVudE9mAAAB4mp1bWIAAABBanVtZGNib3IAEQAQgAAAqgA4m3ETYzJwYS5hY3Rpb25zLnYyAAAAABhjMnNopmD4DX7o3dnzxTlW7uKZqAAAAZljYm9yomdhY3Rpb25zgqJmYWN0aW9ua2MycGEub3BlbmVkanBhcmFtZXRlcnOha2luZ3JlZGllbnRzgaJjdXJseC1zZWxmI2p1bWJmPWMycGEuYXNzZXJ0aW9ucy9jMnBhLmluZ3JlZGllbnQudjNkaGFzaFggCWZEKH78ns6YysSlCPPmvOJ+wBS7IuwYUmQUDVn5C16kZmFjdGlvbngdY29tLmFudGhyb3BpYy5jbGF1ZGUucHJvdmlkZWRqcGFyYW1ldGVyc6F4H2NvbS5hbnRocm9waWMub3JpZ2luLWNvbmZpZGVuY2VndW5rbm93bmtkZXNjcmlwdGlvbnhmQ2xhdWRlIHByb3ZpZGVkIHRoaXMgZmlsZSBhdCB0aGUgcmVxdWVzdCBvZiBhIHVzZXIgYW5kIG1heSBoYXZlIGNyZWF0ZWQgb3IgbW9kaWZpZWQgdGhlIGZpbGUgY29udGVudHMubXNvZnR3YXJlQWdlbnShZG5hbWVmQ2xhdWRlcmFsbEFjdGlvbnNJbmNsdWRlZPUAAADIanVtYgAAAEBqdW1kY2JvcgARABCAAACqADibcRNjMnBhLmhhc2guZGF0YQAAAAAYYzJzaET70IpB/3ac/mfkvyI+hTUAAACAY2JvcqVjYWxnZnNoYTI1NmNwYWRNAAAAAAAAAAAAAAAAAGRoYXNoWCCbOj+8yhuz1eNirkPAk9joY2jhCBZXoVXd1fidptGHB2RuYW1lbmp1bWJmIG1hbmlmZXN0amV4Y2x1c2lvbnOBomVzdGFydBi/Zmxlbmd0aBkeBAAAAj5qdW1iAAAAJ2p1bWRjMmNsABEAEIAAAKoAOJtxA2MycGEuY2xhaW0udjIAAAACD2Nib3KlY2FsZ2ZzaGEyNTZpc2lnbmF0dXJleE1zZWxmI2p1bWJmPS9jMnBhL3VybjpjMnBhOjhlZjU4NzMwLTkzMzktNGUxNC04NjJkLTQzZjA5MzdmMDBlMS9jMnBhLnNpZ25hdHVyZWppbnN0YW5jZUlEeCx4bXA6aWlkOjMwZjdkNWQxLWE5NDEtNGY1NC05MTAzLTk3ZDNjOTMxM2I0Y3JjcmVhdGVkX2Fzc2VydGlvbnODomN1cmx4LXNlbGYjanVtYmY9YzJwYS5hc3NlcnRpb25zL2MycGEuaW5ncmVkaWVudC52M2RoYXNoWCAJZkQofvyezpjKxKUI8+a84n7AFLsi7BhSZBQNWfkLXqJjdXJseCpzZWxmI2p1bWJmPWMycGEuYXNzZXJ0aW9ucy9jMnBhLmFjdGlvbnMudjJkaGFzaFggTUSp1KWA8KZvYqZ5RM9HF7XLINzfnuF8ATQBlXOVO3CiY3VybHgpc2VsZiNqdW1iZj1jMnBhLmFzc2VydGlvbnMvYzJwYS5oYXNoLmRhdGFkaGFzaFggRrPDG/zz0uVlXVS0ymLVBjJGDnVoPCWuhzRgtRUjkr10Y2xhaW1fZ2VuZXJhdG9yX2luZm+jZG5hbWVvQW50aHJvcGljIEZpbGVzZ3ZlcnNpb25lMS4wLjBrc3BlY1ZlcnNpb25lMi40LjAAABA4anVtYgAAAChqdW1kYzJjcwARABCAAACqADibcQNjMnBhLnNpZ25hdHVyZQAAABAIY2JvctKEWQISogEmGCFZAgowggIGMIIBjaADAgECAhRA5aAK7sI50L64g/oGQgU9Z1UTADAKBggqhkjOPQQDAzBJMRcwFQYDVQQKEw5BbnRocm9waWMsIFBCQzEuMCwGA1UEAxMlQW50aHJvcGljIENvbnRlbnQgQ3JlZGVudGlhbHMgUm9vdCBDQTAeFw0yNjA4MDcxODQzNTZaFw0yODA4MDYxOTQzNTZaMEQxFzAVBgNVBAoTDkFudGhyb3BpYywgUEJDMSkwJwYDVQQDEyBBbnRocm9waWMgQ2xhdWRlIENvbnRlbnQgU2lnbmluZzBZMBMGByqGSM49AgEGCCqGSM49AwEHA0IABJh6CmvLUBgFFNU0vUKlOVtE6djd17L5SuwX0LemFisBM3dkd/3cyjxFA3Qo5S46fX0/ihY0VZ7mfb9KF703t5OjWDBWMA4GA1UdDwEB/wQEAwIHgDAVBgNVHSUEDjAMBgorBgEEAYPoXgIBMAwGA1UdEwEB/wQCMAAwHwYDVR0jBBgwFoAUzlHiBIFOZFsj+OPEz5o+nMHXXMIwCgYIKoZIzj0EAwMDZwAwZAIwMXMdFJ4BetLLVY7ORuE9noqbbAZOZn/aArXyTwFAZfKrPzxF2vPoJNf1+UCdg1XGAjBwX1zd9WGqYkqmL5SFqw1QySjr1zJfpJM9+1rdDwSPLMOPOjKuiXjoU/pUUeG9RwmhY3BhZFkNngAAAAAAAAAAAAAAAAAAAAAAAAAAAAAAAAAAAAAAAAAAAAAAAAAAAAAAAAAAAAAAAAAAAAAAAAAAAAAAAAAAAAAAAAAAAAAAAAAAAAAAAAAAAAAAAAAAAAAAAAAAAAAAAAAAAAAAAAAAAAAAAAAAAAAAAAAAAAAAAAAAAAAAAAAAAAAAAAAAAAAAAAAAAAAAAAAAAAAAAAAAAAAAAAAAAAAAAAAAAAAAAAAAAAAAAAAAAAAAAAAAAAAAAAAAAAAAAAAAAAAAAAAAAAAAAAAAAAAAAAAAAAAAAAAAAAAAAAAAAAAAAAAAAAAAAAAAAAAAAAAAAAAAAAAAAAAAAAAAAAAAAAAAAAAAAAAAAAAAAAAAAAAAAAAAAAAAAAAAAAAAAAAAAAAAAAAAAAAAAAAAAAAAAAAAAAAAAAAAAAAAAAAAAAAAAAAAAAAAAAAAAAAAAAAAAAAAAAAAAAAAAAAAAAAAAAAAAAAAAAAAAAAAAAAAAAAAAAAAAAAAAAAAAAAAAAAAAAAAAAAAAAAAAAAAAAAAAAAAAAAAAAAAAAAAAAAAAAAAAAAAAAAAAAAAAAAAAAAAAAAAAAAAAAAAAAAAAAAAAAAAAAAAAAAAAAAAAAAAAAAAAAAAAAAAAAAAAAAAAAAAAAAAAAAAAAAAAAAAAAAAAAAAAAAAAAAAAAAAAAAAAAAAAAAAAAAAAAAAAAAAAAAAAAAAAAAAAAAAAAAAAAAAAAAAAAAAAAAAAAAAAAAAAAAAAAAAAAAAAAAAAAAAAAAAAAAAAAAAAAAAAAAAAAAAAAAAAAAAAAAAAAAAAAAAAAAAAAAAAAAAAAAAAAAAAAAAAAAAAAAAAAAAAAAAAAAAAAAAAAAAAAAAAAAAAAAAAAAAAAAAAAAAAAAAAAAAAAAAAAAAAAAAAAAAAAAAAAAAAAAAAAAAAAAAAAAAAAAAAAAAAAAAAAAAAAAAAAAAAAAAAAAAAAAAAAAAAAAAAAAAAAAAAAAAAAAAAAAAAAAAAAAAAAAAAAAAAAAAAAAAAAAAAAAAAAAAAAAAAAAAAAAAAAAAAAAAAAAAAAAAAAAAAAAAAAAAAAAAAAAAAAAAAAAAAAAAAAAAAAAAAAAAAAAAAAAAAAAAAAAAAAAAAAAAAAAAAAAAAAAAAAAAAAAAAAAAAAAAAAAAAAAAAAAAAAAAAAAAAAAAAAAAAAAAAAAAAAAAAAAAAAAAAAAAAAAAAAAAAAAAAAAAAAAAAAAAAAAAAAAAAAAAAAAAAAAAAAAAAAAAAAAAAAAAAAAAAAAAAAAAAAAAAAAAAAAAAAAAAAAAAAAAAAAAAAAAAAAAAAAAAAAAAAAAAAAAAAAAAAAAAAAAAAAAAAAAAAAAAAAAAAAAAAAAAAAAAAAAAAAAAAAAAAAAAAAAAAAAAAAAAAAAAAAAAAAAAAAAAAAAAAAAAAAAAAAAAAAAAAAAAAAAAAAAAAAAAAAAAAAAAAAAAAAAAAAAAAAAAAAAAAAAAAAAAAAAAAAAAAAAAAAAAAAAAAAAAAAAAAAAAAAAAAAAAAAAAAAAAAAAAAAAAAAAAAAAAAAAAAAAAAAAAAAAAAAAAAAAAAAAAAAAAAAAAAAAAAAAAAAAAAAAAAAAAAAAAAAAAAAAAAAAAAAAAAAAAAAAAAAAAAAAAAAAAAAAAAAAAAAAAAAAAAAAAAAAAAAAAAAAAAAAAAAAAAAAAAAAAAAAAAAAAAAAAAAAAAAAAAAAAAAAAAAAAAAAAAAAAAAAAAAAAAAAAAAAAAAAAAAAAAAAAAAAAAAAAAAAAAAAAAAAAAAAAAAAAAAAAAAAAAAAAAAAAAAAAAAAAAAAAAAAAAAAAAAAAAAAAAAAAAAAAAAAAAAAAAAAAAAAAAAAAAAAAAAAAAAAAAAAAAAAAAAAAAAAAAAAAAAAAAAAAAAAAAAAAAAAAAAAAAAAAAAAAAAAAAAAAAAAAAAAAAAAAAAAAAAAAAAAAAAAAAAAAAAAAAAAAAAAAAAAAAAAAAAAAAAAAAAAAAAAAAAAAAAAAAAAAAAAAAAAAAAAAAAAAAAAAAAAAAAAAAAAAAAAAAAAAAAAAAAAAAAAAAAAAAAAAAAAAAAAAAAAAAAAAAAAAAAAAAAAAAAAAAAAAAAAAAAAAAAAAAAAAAAAAAAAAAAAAAAAAAAAAAAAAAAAAAAAAAAAAAAAAAAAAAAAAAAAAAAAAAAAAAAAAAAAAAAAAAAAAAAAAAAAAAAAAAAAAAAAAAAAAAAAAAAAAAAAAAAAAAAAAAAAAAAAAAAAAAAAAAAAAAAAAAAAAAAAAAAAAAAAAAAAAAAAAAAAAAAAAAAAAAAAAAAAAAAAAAAAAAAAAAAAAAAAAAAAAAAAAAAAAAAAAAAAAAAAAAAAAAAAAAAAAAAAAAAAAAAAAAAAAAAAAAAAAAAAAAAAAAAAAAAAAAAAAAAAAAAAAAAAAAAAAAAAAAAAAAAAAAAAAAAAAAAAAAAAAAAAAAAAAAAAAAAAAAAAAAAAAAAAAAAAAAAAAAAAAAAAAAAAAAAAAAAAAAAAAAAAAAAAAAAAAAAAAAAAAAAAAAAAAAAAAAAAAAAAAAAAAAAAAAAAAAAAAAAAAAAAAAAAAAAAAAAAAAAAAAAAAAAAAAAAAAAAAAAAAAAAAAAAAAAAAAAAAAAAAAAAAAAAAAAAAAAAAAAAAAAAAAAAAAAAAAAAAAAAAAAAAAAAAAAAAAAAAAAAAAAAAAAAAAAAAAAAAAAAAAAAAAAAAAAAAAAAAAAAAAAAAAAAAAAAAAAAAAAAAAAAAAAAAAAAAAAAAAAAAAAAAAAAAAAAAAAAAAAAAAAAAAAAAAAAAAAAAAAAAAAAAAAAAAAAAAAAAAAAAAAAAAAAAAAAAAAAAAAAAAAAAAAAAAAAAAAAAAAAAAAAAAAAAAAAAAAAAAAAAAAAAAAAAAAAAAAAAAAAAAAAAAAAAAAAAAAAAAAAAAAAAAAAAAAAAAAAAAAAAAAAAAAAAAAAAAAAAAAAAAAAAAAAAAAAAAAAAAAAAAAAAAAAAAAAAAAAAAAAAAAAAAAAAAAAAAAAAAAAAAAAAAAAAAAAAAAAAAAAAAAAAAAAAAAAAAAAAAAAAAAAAAAAAAAAAAAAAAAAAAAAAAAAAAAAAAAAAAAAAAAAAAAAAAAAAAAAAAAAAAAAAAAAAAAAAAAAAAAAAAAAAAAAAAAAAAAAAAAAAAAAAAAAAAAAAAAAAAAAAAAAAAAAAAAAAAAAAAAAAAAAAAAAAAAAAAAAAAAAAAAAAAAAAAAAAAAAAAAAAAAAAAAAAAAAAAAAAAAAAAAAAAAAAAAAAAAAAAAAAAAAAAAAAAAAAAAAAAAAAAAAAAAAAAAAAAAAAAAAAAAAAAAAAAAAAAAAAAAAAAAAAAAAAAAAAAAAAAAAAAAAAAAAAAAAAAAAAAAAAAAAAAAAAAAAAAAAAAAAAAAAAAAAAAAAAAAAAAAAAAAAAAAAAAAAAAAAAAAAAAAAAAAAAAAAAAAAAAAAAAAAAAAAAAAAAAAAAAAAAAAAAAAAAAAAAAAAAAAAAAAAAAAAAAAAAAAAAAAAAAAAAAAAAAAAAAAAAAAAAAAAAAAAAAAAAAAAAAAAAAAAAAAAAAAAAAAAAAAAAAAAAAAAAAAAAAAAAAAAAAAAAAAAAAAAAAAAAAAAAAAAAAAAAAAAAAAAAAAAAAAAAAAAAAAAAAAAAAAAAAAAAAAAAAAAAAAAAAAAAAAAAAAAAAAAAAAAAAAAAAAAAAAAAAAAAAAAAAAAAAAAAAAAAAAAAAAAAAAAAAAAAAAAAAAAAAAAAAAAAAAAAAAAAAAAAAAAAAAAAAAAAAAAAAAAAAAAAAAAAAAAAAAAAAAAAAAAAAAAAAAAAAAAAAAAAAAAAAAAAAAAAAAAAAAAAAAAAAAAAAAAAAAAAAAAAAAAAAAAAAAAAAAAAAAAAAAAAAAAAAAAAAAAAAAAAAAAAAAAAAAAAAAAAAAAAAAAAAAAAAAAAAAAAAAAAAAAAAAAAAAAAAAAAAAAAAAAAAAAAAAAAAAAAAAAAAAAAAAAAAAAAAAAAAAAAAAAAAAAAAAAAAAAAAAAAAAAAAAAAAAAAAAAAAAAAAAAAAAAAAAAAAAAAAAAAAAAAAAAAAAAAAAAAAAAAAAAAAAAAAAAAAAAAAAAAAAAAAAAAAAAAAAAAAAAAAAAAAAAAAAAAAAAAAAAAAAAAAAAAAAAAAAAAAAAAAAAAAAAAAAAAAAAAAAAAAAAAAAAAAAAAAAAAAAAAAAAAAAAAAAAAAAAAAAAAAAAAAAAAAAAAAAAAAAAAAAAAAAAAAAAAAAAAAAAAAAAAAAAAAAAAAAAAAAAAAAAAAAAAAAAAAAAAAAAAAAAAAAAAAAAAAAAAAAAAAAAAAAAAAAAAAAAAAAAAAAAAAAAAAAAAAAAAAAAAAAAAAAAAAAAAAAAAAAAAAAAAAAAAAAAAAAAAAAAAAAAAAAAAAAAAAAAAAAAAAAAAAAAAAAAAAAAAAAAAAAAAAAAAAAAAAAAAAAAAAAAAAAAAAAAAAAAAAAAAAAAAAAAAAAAAAAAAAAAAAAAAAAAAAAAAAAAAAAAAAAAAAAAAAAAAAAAAAAAAAAAAAAAAAAAAAAAAAAAAAAAAAAAAAAAAAAAAAAAAAAAAAAAAAAAAAAAAAAAAAAAAAAAAAAAAPZYQAaoA4Of29b6MTpp0Q8B8N7gTQKRvStfysMQnLXVvmtjbMdbtGpCqHmOg8Em1cCHzl6Z+RDwsnEmowi3Cd2Ciio=</c2pa:manifest></metadata>
<defs>
  <linearGradient id="sky" x1="0" y1="0" x2="0" y2="1"><stop offset="0" stop-color="#CFE8D0"/><stop offset="1" stop-color="#F4FAEC"/></linearGradient>
  <radialGradient id="sun"><stop offset="0" stop-color="#FFF6D6"/><stop offset="1" stop-color="#FFF6D6" stop-opacity="0"/></radialGradient>
  <pattern id="siding" width="200" height="44" patternUnits="userSpaceOnUse">
    <rect width="200" height="44" fill="#A7C9A0"/><rect y="37" width="200" height="7" fill="#92BB8B"/>
  </pattern>
</defs>
<g id="outside">
  <rect width="1920" height="760" fill="url(#sky)"/>
  <circle cx="1660" cy="200" r="140" fill="url(#sun)"/><circle cx="1660" cy="200" r="60" fill="#FFF3C9"/>
  <g fill="#fff" opacity=".9"><circle cx="1250" cy="220" r="30"/><circle cx="1290" cy="205" r="42"/><circle cx="1335" cy="222" r="30"/>
    <circle cx="1540" cy="330" r="22"/><circle cx="1570" cy="318" r="30"/><circle cx="1602" cy="332" r="22"/></g>
  <path d="M 1100 620 Q 1400 500 1700 590 Q 1820 560 1920 575 L 1920 760 L 1100 760 Z" fill="#C4E0B4"/>
  <g stroke="#587A4E" stroke-width="3"><rect x="1344" y="540" width="14" height="60" fill="#9C7A55"/>
    <circle cx="1351" cy="520" r="40" fill="#8CC07D"/><circle cx="1326" cy="545" r="26" fill="#8CC07D"/><circle cx="1378" cy="542" r="28" fill="#8CC07D"/>
    <rect x="1774" y="552" width="12" height="50" fill="#9C7A55"/><circle cx="1780" cy="535" r="32" fill="#7AB56B"/></g>
  <path d="M 1100 680 Q 1350 620 1600 670 Q 1780 640 1920 660 L 1920 760 L 1100 760 Z" fill="#A9D196"/>
</g>
<g id="house" stroke="#587A4E" stroke-width="4" stroke-linejoin="round">
  <rect x="-10" y="0" width="1110" height="760" fill="url(#siding)" stroke="none"/>
  <rect x="1090" y="0" width="26" height="760" fill="#F0E9DA"/>
  <!-- door -->
  <rect x="170" y="360" width="250" height="400" fill="#F0E9DA"/>
  <rect x="190" y="380" width="210" height="380" fill="#6E9A63"/>
  <path d="M 230 520 L 230 470 A 65 65 0 0 1 360 470 L 360 520 Z" fill="#E6F3DF"/>
  <line x1="295" y1="405" x2="295" y2="520" stroke-width="3"/>
  <rect x="222" y="560" width="66" height="160" rx="4" fill="none" stroke="#557A4C" stroke-width="3"/>
  <rect x="302" y="560" width="66" height="160" rx="4" fill="none" stroke="#557A4C" stroke-width="3"/>
  <circle cx="378" cy="598" r="9" fill="#E9C46A"/>
  <!-- lantern -->
  <path d="M 450 410 L 470 410 L 470 430" fill="none" stroke-width="4"/>
  <ellipse cx="470" cy="458" rx="50" ry="50" fill="#FFF3C4" opacity=".45" stroke="none"/>
  <path d="M 448 430 L 492 430 L 470 414 Z" fill="#557A4C"/>
  <rect x="452" y="430" width="36" height="54" rx="4" fill="#FFF1B8"/>
  <rect x="448" y="484" width="44" height="8" rx="3" fill="#557A4C"/>
  <!-- window -->
  <rect x="538" y="270" width="46" height="300" fill="#5E8C57"/><line x1="544" y1="296" x2="578" y2="296" stroke-width="2.5"/><line x1="544" y1="318" x2="578" y2="318" stroke-width="2.5"/><line x1="544" y1="340" x2="578" y2="340" stroke-width="2.5"/><line x1="544" y1="362" x2="578" y2="362" stroke-width="2.5"/><line x1="544" y1="384" x2="578" y2="384" stroke-width="2.5"/><line x1="544" y1="406" x2="578" y2="406" stroke-width="2.5"/><line x1="544" y1="428" x2="578" y2="428" stroke-width="2.5"/><line x1="544" y1="450" x2="578" y2="450" stroke-width="2.5"/><line x1="544" y1="472" x2="578" y2="472" stroke-width="2.5"/><line x1="544" y1="494" x2="578" y2="494" stroke-width="2.5"/><line x1="544" y1="516" x2="578" y2="516" stroke-width="2.5"/><line x1="544" y1="538" x2="578" y2="538" stroke-width="2.5"/>
  <rect x="896" y="270" width="46" height="300" fill="#5E8C57"/><line x1="902" y1="296" x2="936" y2="296" stroke-width="2.5"/><line x1="902" y1="318" x2="936" y2="318" stroke-width="2.5"/><line x1="902" y1="340" x2="936" y2="340" stroke-width="2.5"/><line x1="902" y1="362" x2="936" y2="362" stroke-width="2.5"/><line x1="902" y1="384" x2="936" y2="384" stroke-width="2.5"/><line x1="902" y1="406" x2="936" y2="406" stroke-width="2.5"/><line x1="902" y1="428" x2="936" y2="428" stroke-width="2.5"/><line x1="902" y1="450" x2="936" y2="450" stroke-width="2.5"/><line x1="902" y1="472" x2="936" y2="472" stroke-width="2.5"/><line x1="902" y1="494" x2="936" y2="494" stroke-width="2.5"/><line x1="902" y1="516" x2="936" y2="516" stroke-width="2.5"/><line x1="902" y1="538" x2="936" y2="538" stroke-width="2.5"/>
  <rect x="590" y="270" width="300" height="300" fill="#F0E9DA"/>
  <rect x="608" y="288" width="264" height="264" fill="#E3F1DC"/>
  <path d="M 612 292 L 660 292 Q 640 420 612 470 Z M 868 292 L 820 292 Q 840 420 868 470 Z" fill="#F7F3E6" stroke-width="3"/>
  <rect x="734" y="288" width="12" height="264" fill="#F0E9DA"/><rect x="608" y="414" width="264" height="12" fill="#F0E9DA"/>
  <ellipse cx="605" cy="562" rx="10" ry="18" fill="#7FB36F"/><circle cx="611" cy="548" r="11" fill="#F7B7C8"/><circle cx="611" cy="548" r="4" fill="#E9A23B" stroke="none"/><ellipse cx="639" cy="562" rx="10" ry="18" fill="#7FB36F"/><circle cx="645" cy="548" r="11" fill="#FFFFFF"/><circle cx="645" cy="548" r="4" fill="#E9A23B" stroke="none"/><ellipse cx="673" cy="562" rx="10" ry="18" fill="#7FB36F"/><circle cx="679" cy="548" r="11" fill="#FFD166"/><circle cx="679" cy="548" r="4" fill="#E9A23B" stroke="none"/><ellipse cx="707" cy="562" rx="10" ry="18" fill="#7FB36F"/><circle cx="713" cy="548" r="11" fill="#F7B7C8"/><circle cx="713" cy="548" r="4" fill="#E9A23B" stroke="none"/><ellipse cx="741" cy="562" rx="10" ry="18" fill="#7FB36F"/><circle cx="747" cy="548" r="11" fill="#FFFFFF"/><circle cx="747" cy="548" r="4" fill="#E9A23B" stroke="none"/><ellipse cx="775" cy="562" rx="10" ry="18" fill="#7FB36F"/><circle cx="781" cy="548" r="11" fill="#FFD166"/><circle cx="781" cy="548" r="4" fill="#E9A23B" stroke="none"/><ellipse cx="809" cy="562" rx="10" ry="18" fill="#7FB36F"/><circle cx="815" cy="548" r="11" fill="#F7B7C8"/><circle cx="815" cy="548" r="4" fill="#E9A23B" stroke="none"/><ellipse cx="843" cy="562" rx="10" ry="18" fill="#7FB36F"/><circle cx="849" cy="548" r="11" fill="#FFFFFF"/><circle cx="849" cy="548" r="4" fill="#E9A23B" stroke="none"/><ellipse cx="877" cy="562" rx="10" ry="18" fill="#7FB36F"/><circle cx="883" cy="548" r="11" fill="#FFD166"/><circle cx="883" cy="548" r="4" fill="#E9A23B" stroke="none"/>
  <rect x="578" y="566" width="324" height="46" rx="4" fill="#8B6B4A"/>
  <line x1="578" y1="589" x2="902" y2="589" stroke-width="3"/>
</g>
<g id="roof" stroke="#587A4E" stroke-width="4">
  <rect x="-10" y="-10" width="1940" height="80" fill="#6F9464"/><line x1="0" y1="22" x2="1920" y2="22" stroke="#557A4C" stroke-width="3"/><line x1="0" y1="46" x2="1920" y2="46" stroke="#557A4C" stroke-width="3"/>
  <rect x="-10" y="68" width="1940" height="28" fill="#F0E9DA"/>
</g>
<g id="railing" stroke="#587A4E" stroke-width="3" stroke-linejoin="round">
  <rect x="1140" y="608" width="14" height="124" fill="#F0E9DA"/><rect x="1184" y="608" width="14" height="124" fill="#F0E9DA"/><rect x="1228" y="608" width="14" height="124" fill="#F0E9DA"/><rect x="1272" y="608" width="14" height="124" fill="#F0E9DA"/><rect x="1316" y="608" width="14" height="124" fill="#F0E9DA"/><rect x="1360" y="608" width="14" height="124" fill="#F0E9DA"/><rect x="1404" y="608" width="14" height="124" fill="#F0E9DA"/><rect x="1492" y="608" width="14" height="124" fill="#F0E9DA"/><rect x="1536" y="608" width="14" height="124" fill="#F0E9DA"/><rect x="1580" y="608" width="14" height="124" fill="#F0E9DA"/><rect x="1624" y="608" width="14" height="124" fill="#F0E9DA"/><rect x="1668" y="608" width="14" height="124" fill="#F0E9DA"/><rect x="1712" y="608" width="14" height="124" fill="#F0E9DA"/><rect x="1756" y="608" width="14" height="124" fill="#F0E9DA"/><rect x="1800" y="608" width="14" height="124" fill="#F0E9DA"/><rect x="1844" y="608" width="14" height="124" fill="#F0E9DA"/>
  <rect x="1116" y="590" width="820" height="18" fill="#F0E9DA" stroke-width="4"/>
  <rect x="1116" y="728" width="820" height="14" fill="#F0E9DA" stroke-width="4"/>
</g>
<g id="posts" stroke="#587A4E" stroke-width="4">
  <rect x="1440" y="96" width="42" height="664" fill="#F0E9DA"/><rect x="1432" y="96" width="58" height="18" fill="#F0E9DA"/><rect x="1432" y="730" width="58" height="30" fill="#F0E9DA"/>
  <rect x="1860" y="96" width="42" height="664" fill="#F0E9DA"/><rect x="1852" y="96" width="58" height="18" fill="#F0E9DA"/><rect x="1852" y="730" width="58" height="30" fill="#F0E9DA"/>
</g>
<g id="hanging_plant" stroke="#587A4E" stroke-width="3" stroke-linejoin="round">
  <path d="M 1270 96 L 1234 262 M 1270 96 L 1306 262 M 1270 96 L 1270 262" fill="none" stroke-width="2.5"/>
  <ellipse cx="1232" cy="320" rx="9" ry="14" fill="#7FB36F"/><ellipse cx="1226" cy="345" rx="9" ry="14" fill="#7FB36F"/><ellipse cx="1230" cy="372" rx="9" ry="14" fill="#7FB36F"/><ellipse cx="1308" cy="318" rx="9" ry="14" fill="#7FB36F"/><ellipse cx="1316" cy="344" rx="9" ry="14" fill="#7FB36F"/><ellipse cx="1312" cy="370" rx="9" ry="14" fill="#7FB36F"/><ellipse cx="1318" cy="396" rx="9" ry="14" fill="#7FB36F"/><ellipse cx="1270" cy="322" rx="9" ry="14" fill="#7FB36F"/><ellipse cx="1266" cy="346" rx="9" ry="14" fill="#7FB36F"/>
  <path d="M 1222 260 L 1318 260 L 1302 312 L 1238 312 Z" fill="#D98E6B"/>
  <ellipse cx="1270" cy="236" rx="12" ry="26" fill="#8CC07D" transform="rotate(-60 1270 262)"/><ellipse cx="1270" cy="236" rx="12" ry="26" fill="#7AB56B" transform="rotate(-30 1270 262)"/><ellipse cx="1270" cy="236" rx="12" ry="26" fill="#8CC07D" transform="rotate(0 1270 262)"/><ellipse cx="1270" cy="236" rx="12" ry="26" fill="#7AB56B" transform="rotate(30 1270 262)"/><ellipse cx="1270" cy="236" rx="12" ry="26" fill="#8CC07D" transform="rotate(60 1270 262)"/>
</g>
<g id="floor">
  <rect y="760" width="1920" height="320" fill="#C9A77F"/><line x1="0" y1="815" x2="1920" y2="815" stroke="#AE8A62" stroke-width="3"/><line x1="0" y1="880" x2="1920" y2="880" stroke="#AE8A62" stroke-width="3"/><line x1="0" y1="955" x2="1920" y2="955" stroke="#AE8A62" stroke-width="3"/><line x1="0" y1="1040" x2="1920" y2="1040" stroke="#AE8A62" stroke-width="3"/><line x1="420" y1="760" x2="420" y2="815" stroke="#AE8A62" stroke-width="3"/><line x1="1250" y1="760" x2="1250" y2="815" stroke="#AE8A62" stroke-width="3"/><line x1="200" y1="815" x2="200" y2="880" stroke="#AE8A62" stroke-width="3"/><line x1="980" y1="815" x2="980" y2="880" stroke="#AE8A62" stroke-width="3"/><line x1="1700" y1="815" x2="1700" y2="880" stroke="#AE8A62" stroke-width="3"/><line x1="620" y1="880" x2="620" y2="955" stroke="#AE8A62" stroke-width="3"/><line x1="1400" y1="880" x2="1400" y2="955" stroke="#AE8A62" stroke-width="3"/><line x1="300" y1="955" x2="300" y2="1040" stroke="#AE8A62" stroke-width="3"/><line x1="1100" y1="955" x2="1100" y2="1040" stroke="#AE8A62" stroke-width="3"/><line x1="1800" y1="955" x2="1800" y2="1040" stroke="#AE8A62" stroke-width="3"/>
  <rect y="760" width="1920" height="14" fill="#000" opacity=".08"/>
</g>
<g id="doormat" stroke="#587A4E" stroke-width="4">
  <rect x="165" y="785" width="260" height="62" rx="10" fill="#7FA56F"/>
  <rect x="180" y="797" width="230" height="38" rx="6" fill="none" stroke="#E6F3DF" stroke-width="3" stroke-dasharray="10 8"/>
</g>
<g id="plants" stroke="#587A4E" stroke-width="3" stroke-linejoin="round">
  <ellipse cx="490" cy="620" rx="20" ry="60" fill="#7AB56B" transform="rotate(-70 490 680)"/><ellipse cx="490" cy="620" rx="20" ry="60" fill="#8CC07D" transform="rotate(-47 490 680)"/><ellipse cx="490" cy="620" rx="20" ry="60" fill="#6AA55C" transform="rotate(-23 490 680)"/><ellipse cx="490" cy="620" rx="20" ry="60" fill="#7AB56B" transform="rotate(0 490 680)"/><ellipse cx="490" cy="620" rx="20" ry="60" fill="#8CC07D" transform="rotate(23 490 680)"/><ellipse cx="490" cy="620" rx="20" ry="60" fill="#6AA55C" transform="rotate(47 490 680)"/><ellipse cx="490" cy="620" rx="20" ry="60" fill="#7AB56B" transform="rotate(70 490 680)"/>
  <path d="M 440 676 L 540 676 L 526 764 L 454 764 Z" fill="#D98E6B" stroke-width="4"/>
  <rect x="434" y="668" width="112" height="16" rx="5" fill="#C97B5A" stroke-width="4"/>
  <ellipse cx="1600" cy="732" rx="16" ry="48" fill="#8CC07D" transform="rotate(-60 1600 780)"/><ellipse cx="1600" cy="732" rx="16" ry="48" fill="#7AB56B" transform="rotate(-36 1600 780)"/><ellipse cx="1600" cy="732" rx="16" ry="48" fill="#8CC07D" transform="rotate(-12 1600 780)"/><ellipse cx="1600" cy="732" rx="16" ry="48" fill="#7AB56B" transform="rotate(12 1600 780)"/><ellipse cx="1600" cy="732" rx="16" ry="48" fill="#8CC07D" transform="rotate(36 1600 780)"/><ellipse cx="1600" cy="732" rx="16" ry="48" fill="#7AB56B" transform="rotate(60 1600 780)"/>
  <path d="M 1560 776 L 1640 776 L 1628 846 L 1572 846 Z" fill="#E6D3A8" stroke-width="4"/>
  <circle cx="1586" cy="742" r="9" fill="#F7B7C8"/><circle cx="1618" cy="736" r="9" fill="#FFFFFF"/>
</g>
</svg>
